<?xml version="1.0" standalone="no"?>
<!DOCTYPE svg PUBLIC "-//W3C//DTD SVG 20010904//EN"
 "http://www.w3.org/TR/2001/REC-SVG-20010904/DTD/svg10.dtd">
<svg version="1.0" xmlns="http://www.w3.org/2000/svg"
 width="840.000000pt" height="779.000000pt" viewBox="0 0 840.000000 779.000000"
 preserveAspectRatio="xMidYMid meet">

<g transform="translate(0.000000,779.000000) scale(0.100000,-0.100000)"
fill="#000000" stroke="none">
<path d="M3595 7545 c-608 -57 -1097 -214 -1563 -500 -665 -408 -1201 -1014
-1505 -1700 -259 -585 -353 -1308 -261 -2015 85 -657 360 -1278 799 -1805 257
-309 607 -617 930 -821 140 -88 415 -226 570 -287 793 -310 1746 -328 2556
-48 154 53 420 169 540 235 l96 53 69 -35 c244 -123 572 -219 875 -257 136
-17 244 -18 519 -8 l183 6 403 506 c222 278 399 507 394 509 -6 2 -52 -6 -102
-17 -290 -65 -706 -95 -982 -72 -187 16 -466 64 -466 80 0 4 25 36 56 72 378
432 662 965 793 1485 81 321 113 578 114 924 1 549 -82 985 -280 1459 -136
327 -339 651 -590 941 -204 237 -537 536 -778 699 -477 324 -1025 521 -1625
586 -206 23 -561 27 -745 10z m740 -389 c387 -46 723 -146 1065 -317 271 -136
478 -279 725 -500 520 -466 871 -1051 1019 -1700 79 -345 103 -786 62 -1129
-10 -85 -20 -157 -22 -158 -1 -2 -976 705 -2166 1571 -1189 867 -2164 1575
-2165 1574 -2 -3 -723 -5378 -723 -5394 0 -7 -42 17 -93 53 -626 434 -1072
1054 -1295 1799 -152 506 -168 1133 -45 1685 157 704 562 1338 1168 1826 339
273 699 463 1099 579 229 66 415 99 736 129 89 8 517 -4 635 -18z m-1200
-2530 c157 -41 273 -162 306 -318 15 -69 6 -195 -21 -283 -82 -266 -291 -445
-520 -445 -98 0 -172 26 -224 78 -68 67 -69 74 -27 182 44 112 192 528 219
618 11 34 16 62 12 62 -15 0 -84 -61 -113 -101 -16 -22 -40 -66 -53 -97 -12
-31 -28 -58 -33 -60 -16 -5 -69 52 -77 83 -15 60 41 161 122 218 74 53 155 76
264 77 52 0 118 -6 145 -14z m2551 -298 c92 -81 112 -142 74 -226 -34 -75 -85
-68 -60 8 12 36 11 43 -2 56 -12 13 -20 14 -37 5 -30 -17 -50 -60 -61 -138
-16 -114 -17 -113 35 -113 38 0 45 -3 45 -20 0 -14 -9 -21 -35 -26 -19 -3 -38
-11 -42 -16 -3 -6 -7 -39 -9 -75 -5 -115 -65 -198 -165 -227 -62 -19 -100 -7
-142 43 -33 39 -36 96 -8 157 36 79 135 153 204 154 32 0 32 -8 7 109 -11 52
-20 109 -20 128 0 69 55 159 118 193 50 26 55 25 98 -12z m-989 -23 l36 -15
-6 -53 c-17 -146 -248 -468 -420 -586 -42 -28 -53 -32 -72 -23 -13 6 -32 23
-41 37 -16 25 -16 30 5 113 17 71 21 118 21 245 0 178 10 220 57 238 29 11 90
6 104 -8 8 -9 -16 -423 -27 -463 -7 -25 -7 -25 14 -6 68 59 202 295 247 433
15 43 28 84 30 91 5 15 8 15 52 -3z m436 -50 c12 -19 30 -35 39 -35 9 0 29
-10 43 -23 53 -45 44 -205 -18 -329 -58 -117 -202 -230 -293 -230 -86 0 -154
94 -154 213 0 185 152 418 294 449 39 9 61 -2 89 -45z m-1252 -14 c50 -50 50
-73 2 -90 -98 -36 -229 -227 -240 -351 -4 -40 -2 -60 5 -60 43 0 146 147 249
355 62 123 68 128 123 100 37 -19 37 -32 -1 -125 -64 -158 -92 -335 -59 -375
12 -15 12 -19 -5 -31 -10 -8 -38 -14 -62 -14 -61 0 -77 27 -71 120 2 38 1 66
-2 62 -3 -4 -26 -34 -51 -66 -84 -113 -159 -144 -211 -88 -91 95 -34 343 118
510 91 101 144 114 205 53z m3101 -1002 c92 -7 172 -15 178 -19 25 -16 -84
-406 -176 -628 -139 -338 -379 -706 -637 -977 l-105 -110 -146 73 c-421 211
-768 526 -1051 952 -91 138 -215 351 -215 370 0 13 427 149 631 200 279 70
632 125 914 143 131 9 457 6 607 -4z m-2777 -746 c101 -260 254 -556 409 -792
185 -281 417 -538 661 -730 44 -35 82 -67 83 -72 8 -20 -289 -142 -491 -203
-320 -97 -591 -136 -947 -136 -564 -1 -1099 138 -1593 413 l-98 54 154 169
c157 173 432 442 592 579 224 192 535 425 770 576 150 96 395 238 411 239 6 0
28 -44 49 -97z"/>
<path d="M2985 4562 l-30 -7 57 -32 c31 -18 59 -36 61 -40 3 -4 -21 -61 -53
-126 -111 -225 -250 -576 -250 -632 0 -40 160 -27 258 21 79 38 188 150 230
237 46 94 72 204 72 301 -1 132 -40 205 -133 250 -56 28 -156 41 -212 28z"/>
<path d="M5485 3818 c-77 -41 -150 -159 -119 -191 12 -12 66 27 94 68 28 41
54 108 48 124 -2 6 -11 5 -23 -1z"/>
<path d="M5074 4142 c-129 -94 -219 -291 -188 -409 9 -32 41 -29 96 7 54 36
90 81 123 153 43 92 56 277 21 277 -7 0 -31 -13 -52 -28z"/>
</g>
</svg>
